<?xml version="1.0" encoding="utf-8"?>
<!-- Generator: Adobe Illustrator 19.0.0, SVG Export Plug-In . SVG Version: 6.00 Build 0)  -->
<svg version="1.1" id="Layer_1" xmlns="http://www.w3.org/2000/svg" xmlns:xlink="http://www.w3.org/1999/xlink" x="0px" y="0px"
	 viewBox="0 0 45 45" enable-background="new 0 0 45 45" xml:space="preserve">
<g id="XMLID_4_">
	<path id="XMLID_5_" fill="#FFFFFF" d="M22.5,42.167c-10.844,0-19.667-8.822-19.667-19.667c0-10.844,8.822-19.666,19.667-19.666
		c10.845,0,19.667,8.822,19.667,19.666C42.167,33.344,33.344,42.167,22.5,42.167z M22.5,4.833c-9.741,0-17.667,7.925-17.667,17.666
		S12.759,40.167,22.5,40.167S40.167,32.241,40.167,22.5S32.241,4.833,22.5,4.833z"/>
</g>
<g id="XMLID_2_">
	<polygon id="XMLID_3_" fill="#FFFFFF" points="22.505,27.905 15.3,20.838 16.7,19.411 22.495,25.094 28.212,19.416 29.622,20.833 	
		"/>
</g>
</svg>
