<?xml version="1.0" encoding="utf-8"?>
<!-- Generator: Adobe Illustrator 16.0.0, SVG Export Plug-In . SVG Version: 6.00 Build 0)  -->
<!DOCTYPE svg PUBLIC "-//W3C//DTD SVG 1.1//EN" "http://www.w3.org/Graphics/SVG/1.1/DTD/svg11.dtd">
<svg version="1.1" id="Layer_1" xmlns="http://www.w3.org/2000/svg" xmlns:xlink="http://www.w3.org/1999/xlink" x="0px" y="0px"
	 width="1400px" height="174px" viewBox="0 0 1400 174" enable-background="new 0 0 1400 174" xml:space="preserve">
<path fill-rule="evenodd" clip-rule="evenodd" fill="#4598FE" d="M0,174l0.01-29.054c0,0,43.643-35.847,90.991-43.912
	C91.02,107.646,96.384,113,103,113c6.627,0,12-5.373,12-12c0-0.469-0.03-0.931-0.082-1.386c1.754,0.111,3.505,0.272,5.25,0.491
	c41.793,5.229,46.059,28.476,88.293,23.423c54.42-6.509,66.47-78.998,102.833-95.896C312.494,32.993,317.278,37,323,37
	c6.627,0,12-5.373,12-12c0-0.021-0.001-0.042-0.001-0.063c35.182,7.521,45.485,65.688,95.283,70.104
	c44.374,3.936,88.586-33.694,146.737-38.689C577.006,56.566,577,56.782,577,57c0,6.627,5.373,12,12,12s12-5.373,12-12
	c0-0.245-0.01-0.488-0.024-0.73c3.257,0.263,6.554,0.635,9.899,1.141c67.099,10.15,84.748,69.81,135.169,79.597
	C746.018,137.335,746,137.665,746,138c0,6.627,5.373,12,12,12s12-5.373,12-12c0-0.058-0.004-0.114-0.004-0.172
	c56.567-6.902,77.732-86.795,108.122-104.16C878.931,39.506,883.939,44,890,44c6.627,0,12-5.373,12-12
	c0-0.178-0.006-0.354-0.014-0.53c29.067,5.423,30.534,28.679,78.307,30.655c50.423,2.088,79.188-46.957,132.76-54.228
	C1113.02,8.261,1113,8.628,1113,9c0,6.627,5.373,12,12,12s12-5.373,12-12c0-0.37-0.02-0.735-0.052-1.097
	c54.55,9.818,69.783,96.839,148.372,115.625c11.793,2.819,22.741,4.607,32.82,5.631c-0.093,0.601-0.141,1.215-0.141,1.841
	c0,6.627,5.373,12,12,12s12-5.373,12-12c0-0.248-0.01-0.494-0.025-0.739c37.408-0.441,58.025-11.381,58.025-11.381V174H0z M1330,138
	c-4.418,0-8-3.582-8-8s3.582-8,8-8s8,3.582,8,8S1334.418,138,1330,138z M1125,16c-4.418,0-8-3.582-8-8s3.582-8,8-8s8,3.582,8,8
	S1129.418,16,1125,16z M890,39c-4.418,0-8-3.582-8-8s3.582-8,8-8s8,3.582,8,8S894.418,39,890,39z M758,145c-4.418,0-8-3.582-8-8.001
	c0-4.417,3.582-7.999,8-7.999s8,3.582,8,7.999C766,141.418,762.418,145,758,145z M589,64c-4.418,0-8-3.582-8-8s3.582-8,8-8
	c4.418,0,8,3.582,8,8S593.418,64,589,64z M323,32c-4.418,0-8-3.582-8-8s3.582-8,8-8c4.418,0,8,3.582,8,8S327.418,32,323,32z
	 M103,108c-4.418,0-8-3.582-8-8s3.582-8,8-8s8,3.582,8,8S107.418,108,103,108z"/>
</svg>
